<svg width="35" height="34" viewBox="0 0 35 34" fill="none" xmlns="http://www.w3.org/2000/svg">
<path d="M12.5773 5.6001C9.17427 5.6001 6.40723 8.3826 6.40723 11.8046V20.3956C6.40723 23.8176 9.17427 26.6001 12.5773 26.6001H21.1205C24.5235 26.6001 27.2906 23.8176 27.2906 20.3956V11.8046C27.2906 8.3826 24.5235 5.6001 21.1205 5.6001H12.5773ZM22.5443 9.41828C23.0664 9.41828 23.4936 9.84783 23.4936 10.3728C23.4936 10.8978 23.0664 11.3274 22.5443 11.3274C22.0223 11.3274 21.5951 10.8978 21.5951 10.3728C21.5951 9.84783 22.0223 9.41828 22.5443 9.41828Z" fill="white"/>
<path d="M22.415 16.0998C22.415 19.1963 19.9198 21.6998 16.85 21.6998C13.7802 21.6998 11.285 19.1963 11.285 16.0998C11.285 13.0033 13.7802 10.4998 16.85 10.4998C19.9198 10.4998 22.415 13.0033 22.415 16.0998Z" stroke="#1E1E1E" stroke-width="1.4"/>
</svg>
