<svg width="34" height="34" viewBox="0 0 34 34" fill="none" xmlns="http://www.w3.org/2000/svg">
<path d="M25.8198 5.6001H7.59439C6.47555 5.6001 5.56934 6.51137 5.56934 7.63646V25.9637C5.56934 27.0888 6.47555 28.0001 7.59439 28.0001H25.8198C26.9387 28.0001 27.8449 27.0888 27.8449 25.9637V7.63646C27.8449 6.51137 26.9387 5.6001 25.8198 5.6001ZM12.6104 23.9274H9.62349V14.2628H12.6104V23.9274ZM11.0866 12.8811C10.1237 12.8811 9.34504 12.0961 9.34504 11.1298C9.34504 10.1636 10.1247 9.37959 11.0866 9.37959C12.0465 9.37959 12.8271 10.1646 12.8271 11.1298C12.8271 12.0961 12.0465 12.8811 11.0866 12.8811ZM23.7988 23.9274H20.8139V19.2274C20.8139 18.1064 20.7937 16.6647 19.2617 16.6647C17.7075 16.6647 17.4685 17.8855 17.4685 19.146V23.9274H14.4836V14.2628H17.3491V15.5834H17.3896C17.7885 14.8238 18.7625 14.0225 20.2155 14.0225C23.2399 14.0225 23.7988 16.0242 23.7988 18.6267V23.9274Z" fill="white"/>
</svg>
