<svg width="34" height="34" viewBox="0 0 34 34" fill="none" xmlns="http://www.w3.org/2000/svg">
<path fill-rule="evenodd" clip-rule="evenodd" d="M6.08063 8.6402C5.03043 9.69041 4.44043 11.1148 4.44043 12.6V21C4.44043 22.4852 5.03043 23.9096 6.08063 24.9598C7.13084 26.01 8.55522 26.6 10.0404 26.6H24.0404C25.5256 26.6 26.95 26.01 28.0002 24.9598C29.0504 23.9096 29.6404 22.4852 29.6404 21V12.6C29.6404 11.1148 29.0504 9.69041 28.0002 8.6402C26.95 7.59 25.5256 7 24.0404 7H10.0404C8.55522 7 7.13084 7.59 6.08063 8.6402ZM15.3006 13.2361C14.834 12.9561 14.2404 13.2922 14.2404 13.8363V19.7637C14.2404 20.3078 14.834 20.6439 15.3006 20.3639L20.24 17.4002C20.6932 17.1284 20.6932 16.4716 20.24 16.1998L15.3006 13.2361Z" fill="white"/>
</svg>
